<svg width="52" height="52" viewBox="0 0 52 52" fill="none" xmlns="http://www.w3.org/2000/svg">
<rect width="8.66667" height="8.66667" transform="matrix(1 -8.74228e-08 -8.74228e-08 -1 10 24.6667)" fill="#FEFEFE"/>
<rect width="8.66667" height="8.66667" transform="matrix(1 -8.74228e-08 -8.74228e-08 -1 16.333 24.6667)" fill="#FEFEFE"/>
<rect width="8.66667" height="8.66667" transform="matrix(1 -8.74228e-08 -8.74228e-08 -1 12 22.6667)" fill="#FEFEFE"/>
<rect width="8.66667" height="8.66667" transform="matrix(1 -8.74228e-08 -8.74228e-08 -1 20.667 22.6667)" fill="#FEFEFE"/>
<rect width="8.66667" height="8.66667" transform="matrix(1 -8.74228e-08 -8.74228e-08 -1 22 18.3334)" fill="#FEFEFE"/>
<rect width="8.66667" height="8.66667" transform="matrix(1 -8.74228e-08 -8.74228e-08 -1 28.167 18.3334)" fill="#FEFEFE"/>
<rect width="8.66667" height="8.66667" transform="matrix(1 -8.74228e-08 -8.74228e-08 -1 33.667 18.3334)" fill="#FEFEFE"/>
<rect width="8.66667" height="8.66667" transform="matrix(1 -8.74228e-08 -8.74228e-08 -1 34 20.6666)" fill="#FEFEFE"/>
<rect width="8.66667" height="8.66667" transform="matrix(1 -8.74228e-08 -8.74228e-08 -1 39.333 20.6666)" fill="#FEFEFE"/>
<rect width="8.66667" height="8.66667" transform="matrix(1 -8.74228e-08 -8.74228e-08 -1 41.167 24.6667)" fill="#FEFEFE"/>
<rect width="8.66667" height="8.66667" transform="matrix(1 -8.74228e-08 -8.74228e-08 -1 41.167 27)" fill="#FEFEFE"/>
<rect width="8.66667" height="8.66667" transform="matrix(1 -8.74228e-08 -8.74228e-08 -1 41.167 34.6666)" fill="#FEFEFE"/>
<rect width="8.66667" height="8.66667" transform="matrix(1 -8.74228e-08 -8.74228e-08 -1 41.167 40)" fill="#FEFEFE"/>
<rect width="8.66667" height="8.66667" transform="matrix(1 -8.74228e-08 -8.74228e-08 -1 37.999 42.6666)" fill="#FEFEFE"/>
<rect width="8.66667" height="8.66667" transform="matrix(1 -8.74228e-08 -8.74228e-08 -1 26.333 44.3334)" fill="#FEFEFE"/>
<rect width="8.66667" height="8.66667" transform="matrix(1 -8.74228e-08 -8.74228e-08 -1 27.667 50)" fill="#FEFEFE"/>
<rect width="8.66667" height="8.66667" transform="matrix(1 -8.74228e-08 -8.74228e-08 -1 20 50)" fill="#FEFEFE"/>
<rect width="8.66667" height="8.66667" transform="matrix(1 -8.74228e-08 -8.74228e-08 -1 12 46.6666)" fill="#FEFEFE"/>
<rect width="8.66667" height="8.66667" transform="matrix(1 -8.74228e-08 -8.74228e-08 -1 31.333 46.6666)" fill="#FEFEFE"/>
<rect width="8.66667" height="8.66667" transform="matrix(1 -8.74228e-08 -8.74228e-08 -1 34 46.6666)" fill="#FEFEFE"/>
<rect width="8.66667" height="8.66667" transform="matrix(1 -8.74228e-08 -8.74228e-08 -1 20 44.3334)" fill="#FEFEFE"/>
<rect width="8.66667" height="8.66667" transform="matrix(1 -8.74228e-08 -8.74228e-08 -1 10 33.3334)" fill="#FEFEFE"/>
<rect width="8.66667" height="8.66667" transform="matrix(1 -8.74228e-08 -8.74228e-08 -1 16.333 33.3334)" fill="#FEFEFE"/>
<rect width="8.66667" height="8.66667" transform="matrix(1 -8.74228e-08 -8.74228e-08 -1 12 29)" fill="#FEFEFE"/>
<rect width="8.66667" height="8.66667" transform="matrix(1 -8.74228e-08 -8.74228e-08 -1 10 40)" fill="#FEFEFE"/>
<rect width="8.66667" height="8.66667" transform="matrix(1 -8.74228e-08 -8.74228e-08 -1 16.333 40)" fill="#FEFEFE"/>
<rect width="8.66667" height="8.66667" transform="matrix(1 -8.74228e-08 -8.74228e-08 -1 12 35.6667)" fill="#FEFEFE"/>
<rect width="8.66667" height="8.66667" transform="matrix(1 -8.74228e-08 -8.74228e-08 -1 28 35.6667)" fill="#FEFEFE"/>
<rect width="8.66667" height="8.66667" transform="matrix(1 -8.74228e-08 -8.74228e-08 -1 33.333 36.6666)" fill="#FEFEFE"/>
<rect width="8.66667" height="8.66667" transform="matrix(1 -8.74228e-08 -8.74228e-08 -1 34 39)" fill="#FEFEFE"/>
<rect width="8.66667" height="8.66667" transform="matrix(1 -8.74228e-08 -8.74228e-08 -1 28 27)" fill="#FEFEFE"/>
<rect width="8.66667" height="8.66667" transform="matrix(1 -8.74228e-08 -8.74228e-08 -1 33.333 28)" fill="#FEFEFE"/>
<rect x="4" y="16" width="4" height="4" fill="#FA1DBB"/>
<rect x="24" y="24" width="4" height="4" fill="#FA1DBB"/>
<rect x="44" y="16" width="4" height="4" fill="#FA1DBB"/>
<rect x="8" y="12" width="4" height="4" fill="#FA1DBB"/>
<rect x="8" y="36" width="4" height="4" fill="#FA1DBB"/>
<rect x="44" y="12" width="4" height="4" fill="#FA1DBB"/>
<rect x="4" y="12" width="4" height="4" fill="#FA1DBB"/>
<rect x="40" y="12" width="4" height="4" fill="#FA1DBB"/>
<rect x="16" y="8" width="4" height="4" fill="#FA1DBB"/>
<rect x="16" y="16" width="4" height="4" fill="#FA1DBB"/>
<rect x="16" y="40" width="4" height="4" fill="#FA1DBB"/>
<rect x="24" y="20" width="4" height="4" fill="#FA1DBB"/>
<rect x="28" y="20" width="4" height="4" fill="#FA1DBB"/>
<rect x="36" y="16" width="4" height="4" fill="#FA1DBB"/>
<rect x="12" y="8" width="4" height="4" fill="#FA1DBB"/>
<rect x="12" y="16" width="4" height="4" fill="#FA1DBB"/>
<rect x="12" y="40" width="4" height="4" fill="#FA1DBB"/>
<rect x="20" y="20" width="4" height="4" fill="#FA1DBB"/>
<rect x="20" y="44" width="4" height="4" fill="#FA1DBB"/>
<rect x="32" y="16" width="4" height="4" fill="#FA1DBB"/>
<rect x="36" y="16" width="4" height="4" fill="#FA1DBB"/>
<rect x="34" y="20" width="4" height="6" fill="#FA1DBB"/>
<rect x="24" y="3.99988" width="4" height="4" fill="#FA1DBB"/>
<rect x="28" y="3.99988" width="4" height="4" fill="#FA1DBB"/>
<rect x="32" y="8" width="4" height="4" fill="#FA1DBB"/>
<rect x="36" y="8" width="4" height="4" fill="#FA1DBB"/>
<rect x="20" y="3.99988" width="4" height="4" fill="#FA1DBB"/>
<rect x="4" y="20" width="4" height="4" fill="#FA1DBB"/>
<rect x="24" y="28" width="4" height="4" fill="#FA1DBB"/>
<rect x="44" y="20" width="4" height="4" fill="#FA1DBB"/>
<rect x="4" y="24" width="4" height="4" fill="#FA1DBB"/>
<rect x="24" y="32" width="4" height="4" fill="#FA1DBB"/>
<rect x="24" y="36" width="4" height="4" fill="#FA1DBB"/>
<rect x="24" y="44" width="4" height="4" fill="#FA1DBB"/>
<rect x="28" y="44" width="4" height="4" fill="#FA1DBB"/>
<rect x="32" y="40" width="4" height="4" fill="#FA1DBB"/>
<rect x="36" y="40" width="4" height="4" fill="#FA1DBB"/>
<rect x="40" y="36" width="4" height="4" fill="#FA1DBB"/>
<rect x="44" y="24" width="4" height="4" fill="#FA1DBB"/>
<rect x="4" y="28" width="4" height="4" fill="#FA1DBB"/>
<rect x="44" y="28" width="4" height="4" fill="#FA1DBB"/>
<rect x="44" y="32" width="4" height="4" fill="#FA1DBB"/>
<rect x="4" y="32" width="4" height="4" fill="#FA1DBB"/>
<rect x="24" y="40" width="4" height="4" fill="#FA1DBB"/>
<rect x="4" y="36" width="4" height="4" fill="#FA1DBB"/>
<rect x="28" y="40" width="4" height="4" transform="rotate(90 28 40)" fill="#FA1DBB"/>
</svg>
